<svg version="1.1" id="Ebene_1_Kopie" xmlns="http://www.w3.org/2000/svg" x="0" y="0" viewBox="0 0 100 100" xml:space="preserve"><style>.st2{fill:#c8b6ad}</style><path id="XMLID_392_" d="M44.4 2.8c3-3.2 8-3.2 11.1 0s9 4.8 13.3 3.6 8.6 1.2 9.6 5.5 5.4 8.7 9.7 9.7c4.3 1 6.8 5.3 5.5 9.6s.3 10.2 3.6 13.2c3.2 3 3.2 8 0 11.1-3.2 3-4.8 9-3.6 13.3s-1.2 8.6-5.5 9.6-8.7 5.4-9.7 9.7c-1 4.3-5.3 6.8-9.6 5.5s-10.2.3-13.3 3.6c-3 3.2-8 3.2-11.1 0-3-3.2-9-4.8-13.2-3.6s-8.6-1.2-9.6-5.5-5.4-8.7-9.7-9.7c-4.3-1-6.8-5.3-5.5-9.6S6 58.6 2.8 55.5s-3.2-8 0-11.1c3.2-3 4.8-9 3.6-13.2s1.2-8.6 5.5-9.6 8.7-5.4 9.7-9.7c1-4.3 5.3-6.8 9.6-5.5S41.4 6 44.4 2.8z" fill="none" stroke="#c2ada4" stroke-width=".809" stroke-miterlimit="10"/><circle cx="50" cy="50" r="40" fill="#fff"/><path class="st2" d="M40 45.4c-.2-.1-.3.2-.2.3 4.3 3.1 8.9 7 9.7 12.5-3.7-2.8-7.8-5-11.4-7.8-3-2.4-6.7-5.1-8-8.9-.1-.2-.5-.2-.5.1.5 3.5 4.2 6.5 6.8 8.6 4.2 3.4 8.8 6.1 13.3 9 .2.1.5 0 .4-.2-.4-5.9-5.2-11-10.1-13.6zm8.7-7.5c-.2-.1-.4.2-.2.3 2.6 2 5.1 3.8 6.8 6.6 1.5 2.4 2.1 5.1 2.2 7.9-.5-1.4-1.1-2.7-2-4.1-1.1-1.6-2.6-3.1-4.1-4.3-2.2-1.7-4.3-3.5-6.4-5.2-2-1.7-4.4-3.1-6.3-4.9-.2-.2-.4.1-.2.2 1.4 1.8 3.4 3.1 5.2 4.6 2 1.6 3.8 3.3 5.8 4.9 1.7 1.3 3.4 2.6 4.8 4.3 1.4 1.7 2.6 3.9 3.3 5.9.1.2.4.2.4-.1 0-6.7-3.2-12.9-9.3-16.1zm9.1-5.2c-.3-.1-.5.3-.2.4 4.1 2.2 9.3 5.3 8.9 10.4-1.4-3-4.9-5.3-7.5-6.6-.1-.1-.2.1-.1.2 1.4 1.1 2.8 2.2 4.2 3.4 1.4 1.2 2.9 2.8 3.2 4.7.1.4.6.3.7 0 1.7-6.3-4.2-10.4-9.2-12.5zm-5.9-5.2h-.2.2z"/><path class="st2" d="M69.6 34.5c-1.7-2-3.7-3.4-6.2-4.3-1.8-.6-3.8-.9-5.6-1.2-1.8-.3-3.5-.4-5.3-.3-.3 0-.3.4 0 .4 2.2.2 4.4.5 6.6 1 2.1.4 4.3.8 6.2 1.8 2.9 1.5 5.3 4.7 6.8 7.5.7 1.3 1.2 2.7 1.5 4.2-1-1.5-2.4-2.8-3.6-3.9-.2-.2-.6.1-.4.3.8 1.1 1.7 2.2 2.5 3.3 1 1.5 1.2 3 1.7 4.6 0 .1.1.1.1.1 0 .6-.1 1.2-.2 1.9-.6-2.1-2.1-4.1-3.1-5.9-.2-.3-.6 0-.4.3.7 1.5 1.5 2.9 2.1 4.4.5 1.5.6 2.9.8 4.4-.2.6-.4 1.3-.7 1.9-.2-2.6-1.3-5.3-2.4-7.5-.1-.2-.4-.1-.4.1.5 1.5 1.1 3 1.5 4.6.5 2.1.1 4.1-.5 6.1-.3.5-.6 1-1 1.5-6 8.4-17.6 12.8-27.8 10.7-1.6-2.5-2-5.2-2.1-8.1 0-.2-.3-.2-.3 0-.1 2.8 0 5.4 1.2 7.8-.4-.1-.9-.2-1.3-.4-3-3.4-4.8-7.1-5.2-11.6 0-.2-.3-.2-.3 0 .1 4.1 1.2 7.8 3.7 10.9-1.3-.6-2.6-1.3-3.8-2.1.1-.2 0-.4-.1-.5-2.6-3.2-2.6-7.7-2.5-11.6 0-.2-.3-.2-.3 0-.3 3.5-.6 7.3.9 10.5-1.3-1.2-2.4-2.6-3.3-4.2 0-.1.1-.2 0-.3-.4-1.8-.6-3.3-.4-5.1.2-1.3.5-2.6.4-3.9 0-.1-.1-.1-.2 0-.6 1.7-1.3 3.8-1.4 5.9-1.6-4.8-1.4-10.2.2-15 1.5-4.5 4.5-8.2 8.4-10.9 4-2.7 8.6-3.9 13.4-4.2.1 0 .1-.2 0-.2-6.4-1.1-13.4 2.6-17.8 7-4.5 4.5-6.5 11.2-6.2 17.4.2 6.2 3.1 12.2 8.2 15.8 5.2 3.7 11.9 4.9 18.1 4C62.3 70 73.2 61.8 74.6 50c1-5.5-1.1-11-5-15.5z"/></svg>