<?xml version="1.0" encoding="utf-8"?>
<!-- Generator: Adobe Illustrator 20.1.0, SVG Export Plug-In . SVG Version: 6.00 Build 0)  -->
<svg version="1.1" id="Ebene_1_Kopie" xmlns="http://www.w3.org/2000/svg" xmlns:xlink="http://www.w3.org/1999/xlink" x="0px"
	 y="0px" viewBox="0 0 100 100" style="enable-background:new 0 0 100 100;" xml:space="preserve">
<style type="text/css">
	.st0{fill:none;stroke:#C2ADA4;stroke-width:0.8094;stroke-miterlimit:10;}
	.st1{fill:#FFFFFF;}
	.st2{fill:#C8B6AD;}
</style>
<path id="XMLID_392_" class="st0" d="M44.4,2.8c3-3.2,8-3.2,11.1,0s9,4.8,13.3,3.6s8.6,1.2,9.6,5.5c1,4.3,5.4,8.7,9.7,9.7
	c4.3,1,6.8,5.3,5.5,9.6s0.3,10.2,3.6,13.2c3.2,3,3.2,8,0,11.1c-3.2,3-4.8,9-3.6,13.3s-1.2,8.6-5.5,9.6c-4.3,1-8.7,5.4-9.7,9.7
	c-1,4.3-5.3,6.8-9.6,5.5s-10.2,0.3-13.3,3.6c-3,3.2-8,3.2-11.1,0c-3-3.2-9-4.8-13.2-3.6s-8.6-1.2-9.6-5.5c-1-4.3-5.4-8.7-9.7-9.7
	c-4.3-1-6.8-5.3-5.5-9.6S6,58.6,2.8,55.5s-3.2-8,0-11.1c3.2-3,4.8-9,3.6-13.2s1.2-8.6,5.5-9.6c4.3-1,8.7-5.4,9.7-9.7
	c1-4.3,5.3-6.8,9.6-5.5S41.4,6,44.4,2.8z"/>
<circle class="st1" cx="50" cy="50" r="40"/>
<g>
	<path class="st2" d="M40,45.4c-0.2-0.1-0.3,0.2-0.2,0.3c4.3,3.1,8.9,7,9.7,12.5c-3.7-2.8-7.8-5-11.4-7.8c-3-2.4-6.7-5.1-8-8.9
		c-0.1-0.2-0.5-0.2-0.5,0.1c0.5,3.5,4.2,6.5,6.8,8.6c4.2,3.4,8.8,6.1,13.3,9c0.2,0.1,0.5,0,0.4-0.2C49.7,53.1,44.9,48,40,45.4z"/>
	<path class="st2" d="M48.7,37.9c-0.2-0.1-0.4,0.2-0.2,0.3c2.6,2,5.1,3.8,6.8,6.6c1.5,2.4,2.1,5.1,2.2,7.9c-0.5-1.4-1.1-2.7-2-4.1
		c-1.1-1.6-2.6-3.1-4.1-4.3c-2.2-1.7-4.3-3.5-6.4-5.2c-2-1.7-4.4-3.1-6.3-4.9c-0.2-0.2-0.4,0.1-0.2,0.2c1.4,1.8,3.4,3.1,5.2,4.6
		c2,1.6,3.8,3.3,5.8,4.9c1.7,1.3,3.4,2.6,4.8,4.3c1.4,1.7,2.6,3.9,3.3,5.9c0.1,0.2,0.4,0.2,0.4-0.1C58,47.3,54.8,41.1,48.7,37.9z"/>
	<path class="st2" d="M57.8,32.7c-0.3-0.1-0.5,0.3-0.2,0.4c4.1,2.2,9.3,5.3,8.9,10.4c-1.4-3-4.9-5.3-7.5-6.6
		c-0.1-0.1-0.2,0.1-0.1,0.2c1.4,1.1,2.8,2.2,4.2,3.4c1.4,1.2,2.9,2.8,3.2,4.7c0.1,0.4,0.6,0.3,0.7,0C68.7,38.9,62.8,34.8,57.8,32.7z
		"/>
	<path class="st2" d="M51.9,27.5h-0.2c0,0,0,0,0,0L51.9,27.5C51.9,27.5,51.9,27.5,51.9,27.5z"/>
	<path class="st2" d="M69.6,34.5c-1.7-2-3.7-3.4-6.2-4.3c-1.8-0.6-3.8-0.9-5.6-1.2c-1.8-0.3-3.5-0.4-5.3-0.3c-0.3,0-0.3,0.4,0,0.4
		c2.2,0.2,4.4,0.5,6.6,1c2.1,0.4,4.3,0.8,6.2,1.8c2.9,1.5,5.3,4.7,6.8,7.5c0.7,1.3,1.2,2.7,1.5,4.2c-1-1.5-2.4-2.8-3.6-3.9
		c-0.2-0.2-0.6,0.1-0.4,0.3c0.8,1.1,1.7,2.2,2.5,3.3c1,1.5,1.2,3,1.7,4.6c0,0.1,0.1,0.1,0.1,0.1c0,0.6-0.1,1.2-0.2,1.9
		c-0.6-2.1-2.1-4.1-3.1-5.9c-0.2-0.3-0.6,0-0.4,0.3c0.7,1.5,1.5,2.9,2.1,4.4c0.5,1.5,0.6,2.9,0.8,4.4c-0.2,0.6-0.4,1.3-0.7,1.9
		c-0.2-2.6-1.3-5.3-2.4-7.5c-0.1-0.2-0.4-0.1-0.4,0.1c0.5,1.5,1.1,3,1.5,4.6c0.5,2.1,0.1,4.1-0.5,6.1c-0.3,0.5-0.6,1-1,1.5
		c-6,8.4-17.6,12.8-27.8,10.7c-1.6-2.5-2-5.2-2.1-8.1c0-0.2-0.3-0.2-0.3,0c-0.1,2.8,0,5.4,1.2,7.8c-0.4-0.1-0.9-0.2-1.3-0.4
		c0,0,0,0,0,0c-3-3.4-4.8-7.1-5.2-11.6c0-0.2-0.3-0.2-0.3,0c0.1,4.1,1.2,7.8,3.7,10.9c-1.3-0.6-2.6-1.3-3.8-2.1
		c0.1-0.2,0-0.4-0.1-0.5c-2.6-3.2-2.6-7.7-2.5-11.6c0-0.2-0.3-0.2-0.3,0c-0.3,3.5-0.6,7.3,0.9,10.5c-1.3-1.2-2.4-2.6-3.3-4.2
		c0-0.1,0.1-0.2,0-0.3c-0.4-1.8-0.6-3.3-0.4-5.1c0.2-1.3,0.5-2.6,0.4-3.9c0-0.1-0.1-0.1-0.2,0c-0.6,1.7-1.3,3.8-1.4,5.9
		c-1.6-4.8-1.4-10.2,0.2-15c1.5-4.5,4.5-8.2,8.4-10.9c4-2.7,8.6-3.9,13.4-4.2c0.1,0,0.1-0.2,0-0.2c-6.4-1.1-13.4,2.6-17.8,7
		c-4.5,4.5-6.5,11.2-6.2,17.4c0.2,6.2,3.1,12.2,8.2,15.8c5.2,3.7,11.9,4.9,18.1,4c11.2-1.7,22.1-9.9,23.5-21.7
		C75.6,44.5,73.5,39,69.6,34.5z"/>
</g>
</svg>
